# Blender 5.0.1
# www.blender.org
o RingExpansion_02
v -0.068212 0.013558 -0.342924
v 0.000000 0.056667 -0.612936
v -0.088093 0.017624 -0.442872
v 0.119578 0.056667 -0.601159
v -0.133802 0.013558 -0.323027
v 0.234561 0.056667 -0.566279
v -0.172800 0.017624 -0.417177
v 0.340529 0.056667 -0.509638
v -0.194251 0.013558 -0.290717
v 0.433411 0.056667 -0.433411
v -0.250867 0.017624 -0.375449
v 0.509638 0.056667 -0.340529
v -0.247234 0.013558 -0.247234
v 0.566279 0.056667 -0.234561
v -0.319293 0.017624 -0.319293
v 0.601159 0.056667 -0.119578
v -0.290717 0.013558 -0.194251
v 0.612936 0.056667 0.000000
v -0.375449 0.017624 -0.250867
v 0.601159 0.056667 0.119578
v -0.323027 0.013558 -0.133802
v 0.566279 0.056667 0.234561
v -0.417177 0.017624 -0.172800
v 0.509638 0.056667 0.340529
v -0.342924 0.013558 -0.068212
v 0.433411 0.056667 0.433411
v -0.442872 0.017624 -0.088093
v 0.340529 0.056667 0.509638
v -0.349642 0.013558 -0.000000
v 0.234561 0.056667 0.566279
v -0.451549 0.017624 -0.000000
v 0.119578 0.056667 0.601159
v -0.342924 0.013558 0.068212
v 0.000000 0.056667 0.612936
v -0.442872 0.017624 0.088093
v -0.119578 0.056667 0.601159
v -0.323027 0.013558 0.133802
v -0.234561 0.056667 0.566279
v -0.417177 0.017624 0.172800
v -0.340529 0.056667 0.509638
v -0.290717 0.013558 0.194251
v -0.433411 0.056667 0.433411
v -0.375449 0.017624 0.250867
v -0.509638 0.056667 0.340529
v -0.247234 0.013558 0.247234
v -0.566279 0.056667 0.234561
v -0.319293 0.017624 0.319293
v -0.601159 0.056667 0.119578
v -0.194251 0.013558 0.290717
v -0.612936 0.056667 0.000000
v -0.250867 0.017624 0.375449
v -0.601159 0.056667 -0.119578
v -0.133802 0.013558 0.323027
v -0.566279 0.056667 -0.234561
v -0.172800 0.017624 0.417177
v -0.509638 0.056667 -0.340529
v -0.068212 0.013558 0.342924
v -0.433411 0.056667 -0.433411
v -0.088093 0.017624 0.442872
v -0.340529 0.056667 -0.509638
v 0.000000 0.013558 0.349642
v -0.234561 0.056667 -0.566279
v 0.000000 0.017624 0.451549
v -0.119578 0.056667 -0.601159
v 0.068212 0.013558 0.342924
v -0.000000 0.000208 -0.282869
v 0.000000 0.026074 -0.511939
v 0.099874 0.026074 -0.502102
v 0.055185 0.000208 -0.277434
v 0.088093 0.017624 0.442872
v 0.195910 0.026074 -0.472970
v 0.108249 0.000208 -0.261337
v 0.133802 0.013558 0.323027
v 0.284418 0.026074 -0.425661
v 0.157153 0.000208 -0.235197
v 0.172800 0.017624 0.417177
v 0.361995 0.026074 -0.361995
v 0.200018 0.000208 -0.200018
v 0.194251 0.013558 0.290717
v 0.425661 0.026074 -0.284418
v 0.235197 0.000208 -0.157153
v 0.250867 0.017624 0.375449
v 0.472970 0.026074 -0.195910
v 0.261337 0.000208 -0.108249
v 0.247234 0.013558 0.247234
v 0.502102 0.026074 -0.099874
v 0.277434 0.000208 -0.055185
v 0.319293 0.017624 0.319293
v 0.511939 0.026074 -0.000000
v 0.282869 0.000208 -0.000000
v 0.290717 0.013558 0.194251
v 0.502102 0.026074 0.099874
v 0.277434 0.000208 0.055185
v 0.375449 0.017624 0.250867
v 0.472970 0.026074 0.195910
v 0.261337 0.000208 0.108249
v 0.323027 0.013558 0.133802
v 0.425661 0.026074 0.284418
v 0.235197 0.000208 0.157153
v 0.417177 0.017624 0.172800
v 0.361995 0.026074 0.361995
v 0.200018 0.000208 0.200018
v 0.342924 0.013558 0.068212
v 0.284418 0.026074 0.425661
v 0.157153 0.000208 0.235197
v 0.442872 0.017624 0.088093
v 0.195910 0.026074 0.472970
v 0.108249 0.000208 0.261337
v 0.349642 0.013558 -0.000000
v 0.099874 0.026074 0.502102
v 0.055185 0.000208 0.277434
v 0.451549 0.017624 -0.000000
v 0.000000 0.026074 0.511939
v -0.000000 0.000208 0.282869
v 0.342924 0.013558 -0.068212
v -0.099874 0.026074 0.502102
v -0.055185 0.000208 0.277434
v 0.442872 0.017624 -0.088093
v -0.195910 0.026074 0.472970
v -0.108249 0.000208 0.261337
v 0.323027 0.013558 -0.133802
v -0.284418 0.026074 0.425661
v -0.157153 0.000208 0.235197
v 0.417177 0.017624 -0.172800
v -0.361995 0.026074 0.361995
v -0.200018 0.000208 0.200018
v 0.290717 0.013558 -0.194251
v -0.425661 0.026074 0.284418
v -0.235197 0.000208 0.157153
v 0.375449 0.017624 -0.250867
v -0.472970 0.026074 0.195910
v -0.261337 0.000208 0.108249
v 0.247234 0.013558 -0.247234
v -0.502102 0.026074 0.099874
v -0.277434 0.000208 0.055185
v 0.319293 0.017624 -0.319293
v -0.511939 0.026074 -0.000000
v -0.282869 0.000208 -0.000000
v 0.194251 0.013558 -0.290717
v -0.502102 0.026074 -0.099874
v -0.277434 0.000208 -0.055185
v 0.250867 0.017624 -0.375449
v -0.472970 0.026074 -0.195910
v -0.261337 0.000208 -0.108249
v 0.133802 0.013558 -0.323027
v -0.425661 0.026074 -0.284418
v -0.235197 0.000208 -0.157153
v 0.172800 0.017624 -0.417177
v -0.361995 0.026074 -0.361995
v -0.200018 0.000208 -0.200018
v 0.068212 0.013558 -0.342924
v -0.284418 0.026074 -0.425661
v -0.157153 0.000208 -0.235197
v 0.088093 0.017624 -0.442872
v -0.195910 0.026074 -0.472970
v -0.108249 0.000208 -0.261337
v 0.000000 0.017624 -0.451549
v -0.099874 0.026074 -0.502102
v -0.055185 0.000208 -0.277434
v 0.000000 0.013558 -0.349642
vn 0.0285 -0.9567 -0.2898
vn 0.0845 -0.9567 -0.2786
vn 0.1373 -0.9567 -0.2568
vn 0.1847 -0.9567 -0.2251
vn 0.2251 -0.9567 -0.1847
vn 0.2568 -0.9567 -0.1373
vn 0.2786 -0.9567 -0.0845
vn 0.2898 -0.9567 -0.0285
vn 0.2898 -0.9567 0.0285
vn 0.2786 -0.9567 0.0845
vn 0.2568 -0.9567 0.1373
vn 0.2251 -0.9567 0.1847
vn 0.1847 -0.9567 0.2251
vn 0.1373 -0.9567 0.2568
vn 0.0845 -0.9567 0.2786
vn 0.0285 -0.9567 0.2898
vn -0.0285 -0.9567 0.2898
vn -0.0845 -0.9567 0.2786
vn -0.1373 -0.9567 0.2568
vn -0.1847 -0.9567 0.2251
vn -0.2251 -0.9567 0.1847
vn -0.2568 -0.9567 0.1373
vn -0.2786 -0.9567 0.0845
vn -0.2898 -0.9567 0.0285
vn -0.2898 -0.9567 -0.0285
vn -0.2786 -0.9567 -0.0845
vn -0.2568 -0.9567 -0.1373
vn -0.2251 -0.9567 -0.1847
vn -0.1847 -0.9567 -0.2251
vn -0.1373 -0.9567 -0.2568
vn -0.0845 -0.9567 -0.2786
vn -0.0285 -0.9567 -0.2898
vn -0.0039 -0.9992 -0.0399
vn 0.0039 -0.9992 0.0399
vn -0.0136 -0.9903 -0.1386
vn -0.0193 -0.9804 -0.1960
vn 0.0193 -0.9804 -0.1960
vn -0.0404 -0.9903 -0.1332
vn -0.0116 -0.9992 -0.0383
vn 0.0039 -0.9992 -0.0399
vn -0.0656 -0.9903 -0.1228
vn -0.0572 -0.9804 -0.1885
vn 0.0572 -0.9804 -0.1885
vn -0.0883 -0.9903 -0.1076
vn -0.0189 -0.9992 -0.0353
vn 0.0116 -0.9992 -0.0383
vn -0.1076 -0.9903 -0.0883
vn -0.0928 -0.9804 -0.1737
vn 0.0928 -0.9804 -0.1737
vn -0.1228 -0.9903 -0.0656
vn -0.0254 -0.9992 -0.0310
vn 0.0189 -0.9992 -0.0353
vn -0.1332 -0.9903 -0.0404
vn -0.1250 -0.9804 -0.1523
vn 0.1250 -0.9804 -0.1523
vn -0.1386 -0.9903 -0.0136
vn -0.0310 -0.9992 -0.0254
vn 0.0254 -0.9992 -0.0310
vn -0.1386 -0.9903 0.0136
vn -0.1523 -0.9804 -0.1250
vn 0.1523 -0.9804 -0.1250
vn -0.1332 -0.9903 0.0404
vn -0.0353 -0.9992 -0.0189
vn 0.0310 -0.9992 -0.0254
vn -0.1228 -0.9903 0.0656
vn -0.1737 -0.9804 -0.0928
vn 0.1737 -0.9804 -0.0928
vn -0.1076 -0.9903 0.0883
vn -0.0383 -0.9992 -0.0116
vn 0.0353 -0.9992 -0.0189
vn -0.0883 -0.9903 0.1076
vn -0.1885 -0.9804 -0.0572
vn 0.1885 -0.9804 -0.0572
vn -0.0656 -0.9903 0.1228
vn -0.0399 -0.9992 -0.0039
vn 0.0383 -0.9992 -0.0116
vn -0.0404 -0.9903 0.1332
vn -0.1960 -0.9804 -0.0193
vn 0.1960 -0.9804 -0.0193
vn -0.0136 -0.9903 0.1386
vn -0.0399 -0.9992 0.0039
vn 0.0399 -0.9992 -0.0039
vn 0.0136 -0.9903 0.1386
vn -0.1960 -0.9804 0.0193
vn 0.1960 -0.9804 0.0193
vn 0.0404 -0.9903 0.1332
vn -0.0383 -0.9992 0.0116
vn 0.0399 -0.9992 0.0039
vn 0.0656 -0.9903 0.1228
vn -0.1885 -0.9804 0.0572
vn 0.1885 -0.9804 0.0572
vn 0.0883 -0.9903 0.1076
vn -0.0353 -0.9992 0.0189
vn 0.0383 -0.9992 0.0116
vn 0.1076 -0.9903 0.0883
vn -0.1737 -0.9804 0.0928
vn 0.1737 -0.9804 0.0928
vn 0.1228 -0.9903 0.0656
vn -0.0310 -0.9992 0.0254
vn 0.0353 -0.9992 0.0189
vn 0.1332 -0.9903 0.0404
vn -0.1523 -0.9804 0.1250
vn 0.1523 -0.9804 0.1250
vn 0.1386 -0.9903 0.0136
vn -0.0254 -0.9992 0.0310
vn 0.0310 -0.9992 0.0254
vn 0.1386 -0.9903 -0.0136
vn -0.1250 -0.9804 0.1523
vn 0.1250 -0.9804 0.1523
vn 0.1332 -0.9903 -0.0404
vn -0.0189 -0.9992 0.0353
vn 0.0254 -0.9992 0.0310
vn 0.1228 -0.9903 -0.0656
vn -0.0928 -0.9804 0.1737
vn 0.0928 -0.9804 0.1737
vn 0.1076 -0.9903 -0.0883
vn -0.0116 -0.9992 0.0383
vn 0.0189 -0.9992 0.0353
vn 0.0883 -0.9903 -0.1076
vn -0.0572 -0.9804 0.1885
vn 0.0572 -0.9804 0.1885
vn 0.0656 -0.9903 -0.1228
vn -0.0039 -0.9992 0.0399
vn 0.0116 -0.9992 0.0383
vn 0.0404 -0.9903 -0.1332
vn -0.0193 -0.9804 0.1960
vn 0.0193 -0.9804 0.1960
vn 0.0136 -0.9903 -0.1386
vt 1.000000 0.499853
vt 1.000000 0.999705
vt 0.968750 0.999705
vt 0.968750 0.499853
vt 0.937500 0.999705
vt 0.937500 0.499853
vt 0.906250 0.999705
vt 0.906250 0.499853
vt 0.875000 0.999705
vt 0.875000 0.499853
vt 0.843750 0.999705
vt 0.843750 0.499853
vt 0.812500 0.999705
vt 0.812500 0.499853
vt 0.781250 0.999705
vt 0.781250 0.499853
vt 0.750000 0.999705
vt 0.750000 0.499853
vt 0.718750 0.999705
vt 0.718750 0.499853
vt 0.687500 0.999705
vt 0.687500 0.499853
vt 0.656250 0.999705
vt 0.656250 0.499853
vt 0.625000 0.999705
vt 0.625000 0.499853
vt 0.593750 0.999705
vt 0.593750 0.499853
vt 0.562500 0.999705
vt 0.562500 0.499853
vt 0.531250 0.999705
vt 0.531250 0.499853
vt 0.500000 0.999705
vt 0.500000 0.499853
vt 0.468750 0.999705
vt 0.468750 0.499853
vt 0.437500 0.999705
vt 0.437500 0.499853
vt 0.406250 0.999705
vt 0.406250 0.499853
vt 0.375000 0.999705
vt 0.375000 0.499853
vt 0.343750 0.999705
vt 0.343750 0.499853
vt 0.312500 0.999705
vt 0.312500 0.499853
vt 0.281250 0.999705
vt 0.281250 0.499853
vt 0.250000 0.999705
vt 0.250000 0.499853
vt 0.218750 0.999705
vt 0.218750 0.499853
vt 0.187500 0.999705
vt 0.187500 0.499853
vt 0.156250 0.999705
vt 0.156250 0.499853
vt 0.125000 0.999705
vt 0.125000 0.499853
vt 0.093750 0.999705
vt 0.093750 0.499853
vt 0.062500 0.999705
vt 0.062500 0.499853
vt 0.031250 0.999705
vt 0.031250 0.499853
vt 0.000000 0.999705
vt 0.000000 0.499853
vt 0.031250 0.166617
vt 0.031250 0.333235
vt 0.000000 0.333235
vt 0.000000 0.166617
vt 0.531250 0.166617
vt 0.531250 0.333235
vt 0.500000 0.333235
vt 0.500000 0.166617
vt 0.031250 0.000000
vt 0.000000 0.000000
vt 1.000000 0.000000
vt 1.000000 0.166617
vt 0.968750 0.166617
vt 0.968750 0.000000
vt 0.062500 0.333235
vt 0.062500 0.166617
vt 1.000000 0.333235
vt 0.968750 0.333235
vt 0.093750 0.333235
vt 0.062500 0.000000
vt 0.937500 0.166617
vt 0.937500 0.000000
vt 0.125000 0.333235
vt 0.093750 0.166617
vt 0.937500 0.333235
vt 0.156250 0.333235
vt 0.093750 0.000000
vt 0.906250 0.166617
vt 0.906250 0.000000
vt 0.187500 0.333235
vt 0.125000 0.166617
vt 0.906250 0.333235
vt 0.218750 0.333235
vt 0.125000 0.000000
vt 0.875000 0.166617
vt 0.875000 0.000000
vt 0.250000 0.333235
vt 0.156250 0.166617
vt 0.875000 0.333235
vt 0.281250 0.333235
vt 0.156250 0.000000
vt 0.843750 0.166617
vt 0.843750 0.000000
vt 0.312500 0.333235
vt 0.187500 0.166617
vt 0.843750 0.333235
vt 0.343750 0.333235
vt 0.187500 0.000000
vt 0.812500 0.166617
vt 0.812500 0.000000
vt 0.375000 0.333235
vt 0.218750 0.166617
vt 0.812500 0.333235
vt 0.406250 0.333235
vt 0.218750 0.000000
vt 0.781250 0.166617
vt 0.781250 0.000000
vt 0.437500 0.333235
vt 0.250000 0.166617
vt 0.781250 0.333235
vt 0.468750 0.333235
vt 0.250000 0.000000
vt 0.750000 0.166617
vt 0.750000 0.000000
vt 0.281250 0.166617
vt 0.750000 0.333235
vt 0.281250 0.000000
vt 0.718750 0.166617
vt 0.718750 0.000000
vt 0.562500 0.333235
vt 0.312500 0.166617
vt 0.718750 0.333235
vt 0.593750 0.333235
vt 0.312500 0.000000
vt 0.687500 0.166617
vt 0.687500 0.000000
vt 0.625000 0.333235
vt 0.343750 0.166617
vt 0.687500 0.333235
vt 0.656250 0.333235
vt 0.343750 0.000000
vt 0.656250 0.166617
vt 0.656250 0.000000
vt 0.375000 0.166617
vt 0.375000 0.000000
vt 0.625000 0.166617
vt 0.625000 0.000000
vt 0.406250 0.166617
vt 0.406250 0.000000
vt 0.593750 0.166617
vt 0.593750 0.000000
vt 0.437500 0.166617
vt 0.437500 0.000000
vt 0.562500 0.166617
vt 0.562500 0.000000
vt 0.468750 0.166617
vt 0.468750 0.000000
vt 0.531250 0.000000
vt 0.500000 0.000000
s 0
f 67/1/1 2/2/1 4/3/1 68/4/1
f 68/4/2 4/3/2 6/5/2 71/6/2
f 71/6/3 6/5/3 8/7/3 74/8/3
f 74/8/4 8/7/4 10/9/4 77/10/4
f 77/10/5 10/9/5 12/11/5 80/12/5
f 80/12/6 12/11/6 14/13/6 83/14/6
f 83/14/7 14/13/7 16/15/7 86/16/7
f 86/16/8 16/15/8 18/17/8 89/18/8
f 89/18/9 18/17/9 20/19/9 92/20/9
f 92/20/10 20/19/10 22/21/10 95/22/10
f 95/22/11 22/21/11 24/23/11 98/24/11
f 98/24/12 24/23/12 26/25/12 101/26/12
f 101/26/13 26/25/13 28/27/13 104/28/13
f 104/28/14 28/27/14 30/29/14 107/30/14
f 107/30/15 30/29/15 32/31/15 110/32/15
f 110/32/16 32/31/16 34/33/16 113/34/16
f 113/34/17 34/33/17 36/35/17 116/36/17
f 116/36/18 36/35/18 38/37/18 119/38/18
f 119/38/19 38/37/19 40/39/19 122/40/19
f 122/40/20 40/39/20 42/41/20 125/42/20
f 125/42/21 42/41/21 44/43/21 128/44/21
f 128/44/22 44/43/22 46/45/22 131/46/22
f 131/46/23 46/45/23 48/47/23 134/48/23
f 134/48/24 48/47/24 50/49/24 137/50/24
f 137/50/25 50/49/25 52/51/25 140/52/25
f 140/52/26 52/51/26 54/53/26 143/54/26
f 143/54/27 54/53/27 56/55/27 146/56/27
f 146/56/28 56/55/28 58/57/28 149/58/28
f 149/58/29 58/57/29 60/59/29 152/60/29
f 152/60/30 60/59/30 62/61/30 155/62/30
f 155/62/31 62/61/31 64/63/31 158/64/31
f 158/64/32 64/63/32 2/65/32 67/66/32
f 1/67/33 3/68/33 157/69/33 160/70/33
f 65/71/34 70/72/34 63/73/34 61/74/34
f 3/68/35 158/64/35 67/66/35 157/69/35
f 159/75/36 1/67/36 160/70/36 66/76/36
f 66/77/37 160/78/37 151/79/37 69/80/37
f 7/81/38 155/62/38 158/64/38 3/68/38
f 5/82/39 7/81/39 3/68/39 1/67/39
f 160/78/40 157/83/40 154/84/40 151/79/40
f 11/85/41 152/60/41 155/62/41 7/81/41
f 156/86/42 5/82/42 1/67/42 159/75/42
f 69/80/43 151/79/43 145/87/43 72/88/43
f 15/89/44 149/58/44 152/60/44 11/85/44
f 9/90/45 11/85/45 7/81/45 5/82/45
f 151/79/46 154/84/46 148/91/46 145/87/46
f 19/92/47 146/56/47 149/58/47 15/89/47
f 153/93/48 9/90/48 5/82/48 156/86/48
f 72/88/49 145/87/49 139/94/49 75/95/49
f 23/96/50 143/54/50 146/56/50 19/92/50
f 13/97/51 15/89/51 11/85/51 9/90/51
f 145/87/52 148/91/52 142/98/52 139/94/52
f 27/99/53 140/52/53 143/54/53 23/96/53
f 150/100/54 13/97/54 9/90/54 153/93/54
f 75/95/55 139/94/55 133/101/55 78/102/55
f 31/103/56 137/50/56 140/52/56 27/99/56
f 17/104/57 19/92/57 15/89/57 13/97/57
f 139/94/58 142/98/58 136/105/58 133/101/58
f 35/106/59 134/48/59 137/50/59 31/103/59
f 147/107/60 17/104/60 13/97/60 150/100/60
f 78/102/61 133/101/61 127/108/61 81/109/61
f 39/110/62 131/46/62 134/48/62 35/106/62
f 21/111/63 23/96/63 19/92/63 17/104/63
f 133/101/64 136/105/64 130/112/64 127/108/64
f 43/113/65 128/44/65 131/46/65 39/110/65
f 144/114/66 21/111/66 17/104/66 147/107/66
f 81/109/67 127/108/67 121/115/67 84/116/67
f 47/117/68 125/42/68 128/44/68 43/113/68
f 25/118/69 27/99/69 23/96/69 21/111/69
f 127/108/70 130/112/70 124/119/70 121/115/70
f 51/120/71 122/40/71 125/42/71 47/117/71
f 141/121/72 25/118/72 21/111/72 144/114/72
f 84/116/73 121/115/73 115/122/73 87/123/73
f 55/124/74 119/38/74 122/40/74 51/120/74
f 29/125/75 31/103/75 27/99/75 25/118/75
f 121/115/76 124/119/76 118/126/76 115/122/76
f 59/127/77 116/36/77 119/38/77 55/124/77
f 138/128/78 29/125/78 25/118/78 141/121/78
f 87/123/79 115/122/79 109/129/79 90/130/79
f 63/73/80 113/34/80 116/36/80 59/127/80
f 33/131/81 35/106/81 31/103/81 29/125/81
f 115/122/82 118/126/82 112/132/82 109/129/82
f 70/72/83 110/32/83 113/34/83 63/73/83
f 135/133/84 33/131/84 29/125/84 138/128/84
f 90/130/85 109/129/85 103/134/85 93/135/85
f 76/136/86 107/30/86 110/32/86 70/72/86
f 37/137/87 39/110/87 35/106/87 33/131/87
f 109/129/88 112/132/88 106/138/88 103/134/88
f 82/139/89 104/28/89 107/30/89 76/136/89
f 132/140/90 37/137/90 33/131/90 135/133/90
f 93/135/91 103/134/91 97/141/91 96/142/91
f 88/143/92 101/26/92 104/28/92 82/139/92
f 41/144/93 43/113/93 39/110/93 37/137/93
f 103/134/94 106/138/94 100/145/94 97/141/94
f 94/146/95 98/24/95 101/26/95 88/143/95
f 129/147/96 41/144/96 37/137/96 132/140/96
f 96/142/97 97/141/97 91/148/97 99/149/97
f 100/145/98 95/22/98 98/24/98 94/146/98
f 45/150/99 47/117/99 43/113/99 41/144/99
f 97/141/100 100/145/100 94/146/100 91/148/100
f 106/138/101 92/20/101 95/22/101 100/145/101
f 126/151/102 45/150/102 41/144/102 129/147/102
f 99/149/103 91/148/103 85/152/103 102/153/103
f 112/132/104 89/18/104 92/20/104 106/138/104
f 49/154/105 51/120/105 47/117/105 45/150/105
f 91/148/106 94/146/106 88/143/106 85/152/106
f 118/126/107 86/16/107 89/18/107 112/132/107
f 123/155/108 49/154/108 45/150/108 126/151/108
f 102/153/109 85/152/109 79/156/109 105/157/109
f 124/119/110 83/14/110 86/16/110 118/126/110
f 53/158/111 55/124/111 51/120/111 49/154/111
f 85/152/112 88/143/112 82/139/112 79/156/112
f 130/112/113 80/12/113 83/14/113 124/119/113
f 120/159/114 53/158/114 49/154/114 123/155/114
f 105/157/115 79/156/115 73/160/115 108/161/115
f 136/105/116 77/10/116 80/12/116 130/112/116
f 57/162/117 59/127/117 55/124/117 53/158/117
f 79/156/118 82/139/118 76/136/118 73/160/118
f 142/98/119 74/8/119 77/10/119 136/105/119
f 117/163/120 57/162/120 53/158/120 120/159/120
f 108/161/121 73/160/121 65/71/121 111/164/121
f 148/91/122 71/6/122 74/8/122 142/98/122
f 61/74/123 63/73/123 59/127/123 57/162/123
f 73/160/124 76/136/124 70/72/124 65/71/124
f 154/84/125 68/4/125 71/6/125 148/91/125
f 114/165/126 61/74/126 57/162/126 117/163/126
f 111/164/127 65/71/127 61/74/127 114/165/127
f 157/83/128 67/1/128 68/4/128 154/84/128
